<mxfile host="app.diagrams.net" modified="2023-05-16T07:47:54.105Z" agent="Mozilla/5.0 (Windows NT 10.0; Win64; x64) AppleWebKit/537.36 (KHTML, like Gecko) Chrome/113.0.0.0 Safari/537.36" etag="Z1l5ExiAhzVPRh-r8jPQ" version="21.3.0" type="github">
  <diagram id="C5RBs43oDa-KdzZeNtuy" name="Page-1">
    <mxGraphModel dx="880" dy="461" grid="1" gridSize="10" guides="1" tooltips="1" connect="1" arrows="1" fold="1" page="1" pageScale="1" pageWidth="827" pageHeight="1169" math="0" shadow="0">
      <root>
        <mxCell id="WIyWlLk6GJQsqaUBKTNV-0" />
        <mxCell id="WIyWlLk6GJQsqaUBKTNV-1" parent="WIyWlLk6GJQsqaUBKTNV-0" />
        <mxCell id="zkfFHV4jXpPFQw0GAbJ--0" value="&lt;&lt;Boundary&gt;&gt;&#xa;商品目錄UI" style="swimlane;fontStyle=2;align=center;verticalAlign=top;childLayout=stackLayout;horizontal=1;startSize=40;horizontalStack=0;resizeParent=1;resizeLast=0;collapsible=1;marginBottom=0;rounded=0;shadow=0;strokeWidth=1;" parent="WIyWlLk6GJQsqaUBKTNV-1" vertex="1">
          <mxGeometry x="40" y="10" width="160" height="170" as="geometry">
            <mxRectangle x="230" y="140" width="160" height="26" as="alternateBounds" />
          </mxGeometry>
        </mxCell>
        <mxCell id="zkfFHV4jXpPFQw0GAbJ--3" value="- 商品名稱&#xa;- 商品圖片&#xa;- 單位&#xa;- 售價" style="text;align=left;verticalAlign=top;spacingLeft=4;spacingRight=4;overflow=hidden;rotatable=0;points=[[0,0.5],[1,0.5]];portConstraint=eastwest;rounded=0;shadow=0;html=0;" parent="zkfFHV4jXpPFQw0GAbJ--0" vertex="1">
          <mxGeometry y="40" width="160" height="70" as="geometry" />
        </mxCell>
        <mxCell id="zkfFHV4jXpPFQw0GAbJ--4" value="" style="line;html=1;strokeWidth=1;align=left;verticalAlign=middle;spacingTop=-1;spacingLeft=3;spacingRight=3;rotatable=0;labelPosition=right;points=[];portConstraint=eastwest;" parent="zkfFHV4jXpPFQw0GAbJ--0" vertex="1">
          <mxGeometry y="110" width="160" height="10" as="geometry" />
        </mxCell>
        <mxCell id="k67tClfiPculuBBCe9sF-32" value="+ 瀏覽商品目錄()&#xa;+ 查看商品明細()&#xa;" style="text;align=left;verticalAlign=top;spacingLeft=4;spacingRight=4;overflow=hidden;rotatable=0;points=[[0,0.5],[1,0.5]];portConstraint=eastwest;rounded=0;shadow=0;html=0;" parent="zkfFHV4jXpPFQw0GAbJ--0" vertex="1">
          <mxGeometry y="120" width="160" height="38" as="geometry" />
        </mxCell>
        <mxCell id="k67tClfiPculuBBCe9sF-14" value="&lt;&lt;Boundary&gt;&gt;&#xa;商品明細UI" style="swimlane;fontStyle=2;align=center;verticalAlign=top;childLayout=stackLayout;horizontal=1;startSize=40;horizontalStack=0;resizeParent=1;resizeLast=0;collapsible=1;marginBottom=0;rounded=0;shadow=0;strokeWidth=1;" parent="WIyWlLk6GJQsqaUBKTNV-1" vertex="1">
          <mxGeometry x="40" y="200" width="160" height="208" as="geometry">
            <mxRectangle x="230" y="140" width="160" height="26" as="alternateBounds" />
          </mxGeometry>
        </mxCell>
        <mxCell id="k67tClfiPculuBBCe9sF-15" value="- 商品編號&#xa;- 商品名稱&#xa;- 商品說明&#xa;- 商品圖片&#xa;- 商品介紹&#xa;- 單位&#xa;- 售價" style="text;align=left;verticalAlign=top;spacingLeft=4;spacingRight=4;overflow=hidden;rotatable=0;points=[[0,0.5],[1,0.5]];portConstraint=eastwest;rounded=0;shadow=0;html=0;" parent="k67tClfiPculuBBCe9sF-14" vertex="1">
          <mxGeometry y="40" width="160" height="110" as="geometry" />
        </mxCell>
        <mxCell id="k67tClfiPculuBBCe9sF-16" value="" style="line;html=1;strokeWidth=1;align=left;verticalAlign=middle;spacingTop=-1;spacingLeft=3;spacingRight=3;rotatable=0;labelPosition=right;points=[];portConstraint=eastwest;" parent="k67tClfiPculuBBCe9sF-14" vertex="1">
          <mxGeometry y="150" width="160" height="20" as="geometry" />
        </mxCell>
        <mxCell id="k67tClfiPculuBBCe9sF-33" value="+ 選擇商品細項()" style="text;align=left;verticalAlign=top;spacingLeft=4;spacingRight=4;overflow=hidden;rotatable=0;points=[[0,0.5],[1,0.5]];portConstraint=eastwest;rounded=0;shadow=0;html=0;" parent="k67tClfiPculuBBCe9sF-14" vertex="1">
          <mxGeometry y="170" width="160" height="38" as="geometry" />
        </mxCell>
        <mxCell id="k67tClfiPculuBBCe9sF-17" value="&lt;&lt;Boundary&gt;&gt;&#xa;購物車UI" style="swimlane;fontStyle=2;align=center;verticalAlign=top;childLayout=stackLayout;horizontal=1;startSize=40;horizontalStack=0;resizeParent=1;resizeLast=0;collapsible=1;marginBottom=0;rounded=0;shadow=0;strokeWidth=1;" parent="WIyWlLk6GJQsqaUBKTNV-1" vertex="1">
          <mxGeometry x="40" y="460" width="160" height="200" as="geometry">
            <mxRectangle x="230" y="140" width="160" height="26" as="alternateBounds" />
          </mxGeometry>
        </mxCell>
        <mxCell id="k67tClfiPculuBBCe9sF-18" value="- 商品編號&#xa;- 商品名稱&#xa;- 數量&#xa;- 單價&#xa;- 合計金額&#xa;- 總金額" style="text;align=left;verticalAlign=top;spacingLeft=4;spacingRight=4;overflow=hidden;rotatable=0;points=[[0,0.5],[1,0.5]];portConstraint=eastwest;rounded=0;shadow=0;html=0;" parent="k67tClfiPculuBBCe9sF-17" vertex="1">
          <mxGeometry y="40" width="160" height="100" as="geometry" />
        </mxCell>
        <mxCell id="k67tClfiPculuBBCe9sF-19" value="" style="line;html=1;strokeWidth=1;align=left;verticalAlign=middle;spacingTop=-1;spacingLeft=3;spacingRight=3;rotatable=0;labelPosition=right;points=[];portConstraint=eastwest;" parent="k67tClfiPculuBBCe9sF-17" vertex="1">
          <mxGeometry y="140" width="160" height="32" as="geometry" />
        </mxCell>
        <mxCell id="k67tClfiPculuBBCe9sF-34" value="+ 新增訂購商品項目()" style="text;align=left;verticalAlign=top;spacingLeft=4;spacingRight=4;overflow=hidden;rotatable=0;points=[[0,0.5],[1,0.5]];portConstraint=eastwest;rounded=0;shadow=0;html=0;" parent="k67tClfiPculuBBCe9sF-17" vertex="1">
          <mxGeometry y="172" width="160" height="28" as="geometry" />
        </mxCell>
        <mxCell id="k67tClfiPculuBBCe9sF-20" value="&lt;&lt;Control&gt;&gt;&#xa;顯示" style="swimlane;fontStyle=2;align=center;verticalAlign=top;childLayout=stackLayout;horizontal=1;startSize=40;horizontalStack=0;resizeParent=1;resizeLast=0;collapsible=1;marginBottom=0;rounded=0;shadow=0;strokeWidth=1;" parent="WIyWlLk6GJQsqaUBKTNV-1" vertex="1">
          <mxGeometry x="340" y="60" width="160" height="180" as="geometry">
            <mxRectangle x="230" y="140" width="160" height="26" as="alternateBounds" />
          </mxGeometry>
        </mxCell>
        <mxCell id="k67tClfiPculuBBCe9sF-22" value="" style="line;html=1;strokeWidth=1;align=left;verticalAlign=middle;spacingTop=-1;spacingLeft=3;spacingRight=3;rotatable=0;labelPosition=right;points=[];portConstraint=eastwest;" parent="k67tClfiPculuBBCe9sF-20" vertex="1">
          <mxGeometry y="40" width="160" height="32" as="geometry" />
        </mxCell>
        <mxCell id="k67tClfiPculuBBCe9sF-35" value="+ 查詢商品目錄資料()&#xa;+ 載入商品目錄UI()&#xa;+ 查詢商品明細資料()&#xa;+ 載入商品明細UI()&#xa;+ 更新商品明細UI()&#xa;+ 顯示已加入購物車訊息()" style="text;align=left;verticalAlign=top;spacingLeft=4;spacingRight=4;overflow=hidden;rotatable=0;points=[[0,0.5],[1,0.5]];portConstraint=eastwest;rounded=0;shadow=0;html=0;" parent="k67tClfiPculuBBCe9sF-20" vertex="1">
          <mxGeometry y="72" width="160" height="90" as="geometry" />
        </mxCell>
        <mxCell id="k67tClfiPculuBBCe9sF-23" value="&lt;&lt;Control&gt;&gt;&#xa;新增" style="swimlane;fontStyle=2;align=center;verticalAlign=top;childLayout=stackLayout;horizontal=1;startSize=40;horizontalStack=0;resizeParent=1;resizeLast=0;collapsible=1;marginBottom=0;rounded=0;shadow=0;strokeWidth=1;" parent="WIyWlLk6GJQsqaUBKTNV-1" vertex="1">
          <mxGeometry x="340" y="330" width="160" height="140" as="geometry">
            <mxRectangle x="230" y="140" width="160" height="26" as="alternateBounds" />
          </mxGeometry>
        </mxCell>
        <mxCell id="k67tClfiPculuBBCe9sF-25" value="" style="line;html=1;strokeWidth=1;align=left;verticalAlign=middle;spacingTop=-1;spacingLeft=3;spacingRight=3;rotatable=0;labelPosition=right;points=[];portConstraint=eastwest;" parent="k67tClfiPculuBBCe9sF-23" vertex="1">
          <mxGeometry y="40" width="160" height="32" as="geometry" />
        </mxCell>
        <mxCell id="k67tClfiPculuBBCe9sF-36" value="+ 資料傳遞()&#xa;+ 更新購物車數量()" style="text;align=left;verticalAlign=top;spacingLeft=4;spacingRight=4;overflow=hidden;rotatable=0;points=[[0,0.5],[1,0.5]];portConstraint=eastwest;rounded=0;shadow=0;html=0;" parent="k67tClfiPculuBBCe9sF-23" vertex="1">
          <mxGeometry y="72" width="160" height="48" as="geometry" />
        </mxCell>
        <mxCell id="k67tClfiPculuBBCe9sF-26" value="&lt;&lt;Entity&gt;&gt;&#xa;商品資料" style="swimlane;fontStyle=2;align=center;verticalAlign=top;childLayout=stackLayout;horizontal=1;startSize=40;horizontalStack=0;resizeParent=1;resizeLast=0;collapsible=1;marginBottom=0;rounded=0;shadow=0;strokeWidth=1;" parent="WIyWlLk6GJQsqaUBKTNV-1" vertex="1">
          <mxGeometry x="590" y="70" width="160" height="198" as="geometry">
            <mxRectangle x="230" y="140" width="160" height="26" as="alternateBounds" />
          </mxGeometry>
        </mxCell>
        <mxCell id="k67tClfiPculuBBCe9sF-27" value="- 商品編號&#xa;- 商品名稱&#xa;- 商品說明&#xa;- 商品圖片&#xa;- 商品介紹&#xa;- 單位&#xa;- 售價" style="text;align=left;verticalAlign=top;spacingLeft=4;spacingRight=4;overflow=hidden;rotatable=0;points=[[0,0.5],[1,0.5]];portConstraint=eastwest;rounded=0;shadow=0;html=0;" parent="k67tClfiPculuBBCe9sF-26" vertex="1">
          <mxGeometry y="40" width="160" height="110" as="geometry" />
        </mxCell>
        <mxCell id="k67tClfiPculuBBCe9sF-28" value="" style="line;html=1;strokeWidth=1;align=left;verticalAlign=middle;spacingTop=-1;spacingLeft=3;spacingRight=3;rotatable=0;labelPosition=right;points=[];portConstraint=eastwest;" parent="k67tClfiPculuBBCe9sF-26" vertex="1">
          <mxGeometry y="150" width="160" height="10" as="geometry" />
        </mxCell>
        <mxCell id="k67tClfiPculuBBCe9sF-37" value="+ 讀取商品目錄資訊()&#xa;+ 讀取商品明細資訊()" style="text;align=left;verticalAlign=top;spacingLeft=4;spacingRight=4;overflow=hidden;rotatable=0;points=[[0,0.5],[1,0.5]];portConstraint=eastwest;rounded=0;shadow=0;html=0;" parent="k67tClfiPculuBBCe9sF-26" vertex="1">
          <mxGeometry y="160" width="160" height="38" as="geometry" />
        </mxCell>
        <mxCell id="k67tClfiPculuBBCe9sF-29" value="&lt;&lt;Entity&gt;&gt;&#xa;購物車資料" style="swimlane;fontStyle=2;align=center;verticalAlign=top;childLayout=stackLayout;horizontal=1;startSize=40;horizontalStack=0;resizeParent=1;resizeLast=0;collapsible=1;marginBottom=0;rounded=0;shadow=0;strokeWidth=1;" parent="WIyWlLk6GJQsqaUBKTNV-1" vertex="1">
          <mxGeometry x="590" y="320" width="160" height="190" as="geometry">
            <mxRectangle x="230" y="140" width="160" height="26" as="alternateBounds" />
          </mxGeometry>
        </mxCell>
        <mxCell id="k67tClfiPculuBBCe9sF-30" value="- 商品編號&#xa;- 商品名稱&#xa;- 數量&#xa;- 單價&#xa;- 合計金額&#xa;- 總金額" style="text;align=left;verticalAlign=top;spacingLeft=4;spacingRight=4;overflow=hidden;rotatable=0;points=[[0,0.5],[1,0.5]];portConstraint=eastwest;rounded=0;shadow=0;html=0;" parent="k67tClfiPculuBBCe9sF-29" vertex="1">
          <mxGeometry y="40" width="160" height="90" as="geometry" />
        </mxCell>
        <mxCell id="k67tClfiPculuBBCe9sF-31" value="" style="line;html=1;strokeWidth=1;align=left;verticalAlign=middle;spacingTop=-1;spacingLeft=3;spacingRight=3;rotatable=0;labelPosition=right;points=[];portConstraint=eastwest;" parent="k67tClfiPculuBBCe9sF-29" vertex="1">
          <mxGeometry y="130" width="160" height="32" as="geometry" />
        </mxCell>
        <mxCell id="k67tClfiPculuBBCe9sF-38" value="+ 加入購物車()" style="text;align=left;verticalAlign=top;spacingLeft=4;spacingRight=4;overflow=hidden;rotatable=0;points=[[0,0.5],[1,0.5]];portConstraint=eastwest;rounded=0;shadow=0;html=0;" parent="k67tClfiPculuBBCe9sF-29" vertex="1">
          <mxGeometry y="162" width="160" height="28" as="geometry" />
        </mxCell>
        <mxCell id="PIsZwrHUzGWZRPaHUmEI-3" value="" style="endArrow=block;startArrow=block;endFill=1;startFill=1;html=1;rounded=0;exitX=1;exitY=0.5;exitDx=0;exitDy=0;dashed=1;" edge="1" parent="WIyWlLk6GJQsqaUBKTNV-1" source="k67tClfiPculuBBCe9sF-32">
          <mxGeometry width="160" relative="1" as="geometry">
            <mxPoint x="330" y="280" as="sourcePoint" />
            <mxPoint x="340" y="150" as="targetPoint" />
          </mxGeometry>
        </mxCell>
        <mxCell id="PIsZwrHUzGWZRPaHUmEI-4" value="" style="endArrow=block;startArrow=block;endFill=1;startFill=1;html=1;rounded=0;exitX=1;exitY=0.5;exitDx=0;exitDy=0;entryX=-0.006;entryY=0.706;entryDx=0;entryDy=0;dashed=1;entryPerimeter=0;" edge="1" parent="WIyWlLk6GJQsqaUBKTNV-1" source="k67tClfiPculuBBCe9sF-15" target="k67tClfiPculuBBCe9sF-35">
          <mxGeometry width="160" relative="1" as="geometry">
            <mxPoint x="250" y="283" as="sourcePoint" />
            <mxPoint x="334" y="330" as="targetPoint" />
          </mxGeometry>
        </mxCell>
        <mxCell id="PIsZwrHUzGWZRPaHUmEI-7" value="" style="endArrow=none;startArrow=block;endFill=0;startFill=1;html=1;rounded=0;exitX=1;exitY=0.5;exitDx=0;exitDy=0;dashed=1;" edge="1" parent="WIyWlLk6GJQsqaUBKTNV-1" source="k67tClfiPculuBBCe9sF-18">
          <mxGeometry width="160" relative="1" as="geometry">
            <mxPoint x="252" y="305.5" as="sourcePoint" />
            <mxPoint x="340" y="220" as="targetPoint" />
          </mxGeometry>
        </mxCell>
        <mxCell id="PIsZwrHUzGWZRPaHUmEI-8" value="" style="endArrow=block;startArrow=none;endFill=1;startFill=0;html=1;rounded=0;dashed=1;exitX=0.5;exitY=0;exitDx=0;exitDy=0;entryX=0.5;entryY=1;entryDx=0;entryDy=0;" edge="1" parent="WIyWlLk6GJQsqaUBKTNV-1" source="k67tClfiPculuBBCe9sF-23" target="k67tClfiPculuBBCe9sF-20">
          <mxGeometry width="160" relative="1" as="geometry">
            <mxPoint x="413.5" y="380" as="sourcePoint" />
            <mxPoint x="413.5" y="240" as="targetPoint" />
          </mxGeometry>
        </mxCell>
        <mxCell id="PIsZwrHUzGWZRPaHUmEI-9" value="" style="endArrow=block;startArrow=block;endFill=1;startFill=1;html=1;rounded=0;dashed=1;" edge="1" parent="WIyWlLk6GJQsqaUBKTNV-1">
          <mxGeometry width="160" relative="1" as="geometry">
            <mxPoint x="500" y="400" as="sourcePoint" />
            <mxPoint x="590" y="400" as="targetPoint" />
          </mxGeometry>
        </mxCell>
        <mxCell id="PIsZwrHUzGWZRPaHUmEI-10" value="" style="endArrow=block;startArrow=block;endFill=1;startFill=1;html=1;rounded=0;exitX=1;exitY=0.5;exitDx=0;exitDy=0;dashed=1;" edge="1" parent="WIyWlLk6GJQsqaUBKTNV-1">
          <mxGeometry width="160" relative="1" as="geometry">
            <mxPoint x="500" y="149.5" as="sourcePoint" />
            <mxPoint x="590" y="150" as="targetPoint" />
          </mxGeometry>
        </mxCell>
        <mxCell id="PIsZwrHUzGWZRPaHUmEI-11" value="" style="endArrow=block;startArrow=none;endFill=1;startFill=0;html=1;rounded=0;dashed=1;entryX=-0.006;entryY=0.042;entryDx=0;entryDy=0;entryPerimeter=0;exitX=1.019;exitY=-0.071;exitDx=0;exitDy=0;exitPerimeter=0;" edge="1" parent="WIyWlLk6GJQsqaUBKTNV-1" source="k67tClfiPculuBBCe9sF-34" target="k67tClfiPculuBBCe9sF-36">
          <mxGeometry width="160" relative="1" as="geometry">
            <mxPoint x="220" y="530" as="sourcePoint" />
            <mxPoint x="330" y="390" as="targetPoint" />
          </mxGeometry>
        </mxCell>
      </root>
    </mxGraphModel>
  </diagram>
</mxfile>
